<svg id="visual" viewBox="0 0 1800 1200" width="1800" height="1200" xmlns="http://www.w3.org/2000/svg" xmlns:xlink="http://www.w3.org/1999/xlink" version="1.1"><g><g transform="translate(414 253)"><path d="M151.7 -42.4C175.6 24.4 159.6 111.1 106 151.3C52.4 191.5 -38.9 185.3 -94.9 141.9C-150.9 98.6 -171.7 18 -150 -45.7C-128.3 -109.4 -64.2 -156.3 -0.1 -156.3C63.9 -156.2 127.7 -109.2 151.7 -42.4Z" stroke="#a20402" fill="none" stroke-width="20"></path></g><g transform="translate(1014 540)"><path d="M118.7 -40.3C134.2 9.2 113.7 68.8 74.6 95.6C35.4 122.3 -22.4 116.4 -64 86.5C-105.5 56.7 -130.8 3 -117.4 -43.6C-104 -90.1 -52 -129.5 -0.2 -129.5C51.6 -129.4 103.2 -89.8 118.7 -40.3Z" stroke="#a20402" fill="none" stroke-width="20"></path></g><g transform="translate(1474 883)"><path d="M62.7 -20.5C72 8.1 63.8 42.3 43.3 56.4C22.9 70.4 -9.7 64.4 -33.5 46.9C-57.2 29.5 -72 0.6 -64.9 -24.9C-57.8 -50.4 -28.9 -72.7 -1.1 -72.3C26.7 -72 53.5 -49 62.7 -20.5Z" stroke="#a20402" fill="none" stroke-width="20"></path></g><g transform="translate(424 770)"><path d="M94.2 -26.9C109.4 16.4 100.5 71.3 68.1 95.2C35.7 119 -20.2 111.9 -57.2 83.8C-94.2 55.7 -112.3 6.7 -99.6 -33.1C-86.9 -72.9 -43.5 -103.5 -2 -102.8C39.4 -102.2 78.9 -70.3 94.2 -26.9Z" stroke="#a20402" fill="none" stroke-width="20"></path></g><g transform="translate(1511 311)"><path d="M38 -12.8C42.7 2.2 35.6 20.7 22.3 30.2C9 39.8 -10.5 40.5 -23.3 31.4C-36.1 22.2 -42.3 3.2 -37.3 -12.1C-32.3 -27.5 -16.1 -39.3 0.3 -39.4C16.6 -39.5 33.3 -27.9 38 -12.8Z" stroke="#a20402" fill="none" stroke-width="20"></path></g></g></svg>