<svg id="visual" viewBox="0 0 600 900" width="600" height="900" xmlns="http://www.w3.org/2000/svg" xmlns:xlink="http://www.w3.org/1999/xlink" version="1.1"><g><g transform="translate(34 197)"><path d="M67.1 -21C76.6 7.3 66.6 42.7 42.1 61.4C17.5 80.1 -21.8 82.1 -49.5 63.2C-77.1 44.3 -93.1 4.4 -82.9 -24.9C-72.7 -54.3 -36.4 -73.2 -3.8 -71.9C28.8 -70.7 57.6 -49.4 67.1 -21Z" stroke="#a20402" fill="none" stroke-width="20"></path></g><g transform="translate(550 115)"><path d="M58.4 -17.6C66.9 7.2 59 38.7 39.4 52.5C19.7 66.4 -11.5 62.6 -33.2 46.6C-55 30.6 -67.2 2.4 -60.1 -20.4C-52.9 -43.3 -26.5 -60.7 -0.7 -60.5C25 -60.2 49.9 -42.3 58.4 -17.6Z" stroke="#a20402" fill="none" stroke-width="20"></path></g><g transform="translate(429 384)"><path d="M71.9 -24C81 4.8 67.9 40.2 44 56.6C20.1 73.1 -14.7 70.6 -37.3 53.7C-59.8 36.8 -70 5.3 -61.8 -22.2C-53.5 -49.8 -26.8 -73.5 2.3 -74.3C31.4 -75 62.7 -52.8 71.9 -24Z" stroke="#a20402" fill="none" stroke-width="20"></path></g><g transform="translate(87 596)"><path d="M33.3 -11.1C38.1 3.9 33.4 21.7 21.2 30.9C9.1 40.1 -10.5 40.7 -23.2 31.6C-35.9 22.4 -41.6 3.5 -36.6 -11.8C-31.6 -27.2 -15.8 -38.9 -0.8 -38.7C14.2 -38.4 28.5 -26.1 33.3 -11.1Z" stroke="#a20402" fill="none" stroke-width="20"></path></g></g></svg>