<svg id="visual" viewBox="0 -80 960 300" width="960" height="150" xmlns="http://www.w3.org/2000/svg" xmlns:xlink="http://www.w3.org/1999/xlink" version="1.1" preserveAspectRatio="none"><path d="M0 132L22.8 132.2C45.7 132.3 91.3 132.7 137 133C182.7 133.3 228.3 133.7 274 137.3C319.7 141 365.3 148 411.2 148C457 148 503 141 548.8 133.2C594.7 125.3 640.3 116.7 686 117.5C731.7 118.3 777.3 128.7 823 136.3C868.7 144 914.3 149 937.2 151.5L960 154L960 0L937.2 0C914.3 0 868.7 0 823 0C777.3 0 731.7 0 686 0C640.3 0 594.7 0 548.8 0C503 0 457 0 411.2 0C365.3 0 319.7 0 274 0C228.3 0 182.7 0 137 0C91.3 0 45.7 0 22.8 0L0 0Z" fill="#a20402"></path><path d="M0 94L22.8 96.5C45.7 99 91.3 104 137 101.8C182.7 99.7 228.3 90.3 274 86.3C319.7 82.3 365.3 83.7 411.2 89C457 94.3 503 103.7 548.8 102.8C594.7 102 640.3 91 686 92C731.7 93 777.3 106 823 107.3C868.7 108.7 914.3 98.3 937.2 93.2L960 88L960 0L937.2 0C914.3 0 868.7 0 823 0C777.3 0 731.7 0 686 0C640.3 0 594.7 0 548.8 0C503 0 457 0 411.2 0C365.3 0 319.7 0 274 0C228.3 0 182.7 0 137 0C91.3 0 45.7 0 22.8 0L0 0Z" fill="#ab0503"></path><path d="M0 55L22.8 57.7C45.7 60.3 91.3 65.7 137 68.5C182.7 71.3 228.3 71.7 274 73.8C319.7 76 365.3 80 411.2 78.8C457 77.7 503 71.3 548.8 72.3C594.7 73.3 640.3 81.7 686 80.2C731.7 78.7 777.3 67.3 823 61.2C868.7 55 914.3 54 937.2 53.5L960 53L960 0L937.2 0C914.3 0 868.7 0 823 0C777.3 0 731.7 0 686 0C640.3 0 594.7 0 548.8 0C503 0 457 0 411.2 0C365.3 0 319.7 0 274 0C228.3 0 182.7 0 137 0C91.3 0 45.7 0 22.8 0L0 0Z" fill="#b50503"></path><path d="M0 15L22.8 21.2C45.7 27.3 91.3 39.7 137 40.7C182.7 41.7 228.3 31.3 274 27.8C319.7 24.3 365.3 27.7 411.2 30.3C457 33 503 35 548.8 38.5C594.7 42 640.3 47 686 46.2C731.7 45.3 777.3 38.7 823 33.5C868.7 28.3 914.3 24.7 937.2 22.8L960 21L960 0L937.2 0C914.3 0 868.7 0 823 0C777.3 0 731.7 0 686 0C640.3 0 594.7 0 548.8 0C503 0 457 0 411.2 0C365.3 0 319.7 0 274 0C228.3 0 182.7 0 137 0C91.3 0 45.7 0 22.8 0L0 0Z" fill="#bf0603"></path></svg>