<?xml version="1.0" encoding="UTF-8" standalone="no"?> <!-- Created with Vectornator for iOS (http://vectornator.io/) --><!DOCTYPE svg PUBLIC "-//W3C//DTD SVG 1.1//EN" "http://www.w3.org/Graphics/SVG/1.1/DTD/svg11.dtd">
<svg width="100%" version="1.1" height="100%" viewBox="0 0 1920 900" style="fill-rule:nonzero;clip-rule:evenodd;stroke-linecap:round;stroke-linejoin:round;" xmlns="http://www.w3.org/2000/svg" xmlns:vectornator="http://vectornator.io" xmlns:xlink="http://www.w3.org/1999/xlink" xml:space="preserve">
<metadata>
<vectornator:setting value="false" key="WDIsolateActiveLayer"/>
<vectornator:setting value="Pixels" key="WDUnits"/>
<vectornator:setting key="WDRulersVisible" value="true"/>
<vectornator:setting key="WDDisplayWhiteBackground" value="false"/>
<vectornator:setting key="IsTimeLapseWatermarkDisabled" value="false"/>
<vectornator:setting value="true" key="WDGuidesVisible"/>
<vectornator:setting value="false" key="WDDynamicGuides"/>
<vectornator:setting key="WDOutlineMode" value="false"/>
<vectornator:setting value="true" key="UndoHistoryDisabled"/>
<vectornator:setting value="false" key="WDSnapToGrid"/>
<vectornator:setting key="VNDimensionsVisible" value="true"/>
<vectornator:setting key="WDCMYKEnabledKey" value="false"/>
<vectornator:setting key="WDSnapToEdges" value="false"/>
<vectornator:setting key="WDSnapToPoints" value="false"/>
<vectornator:setting key="VNSnapToGuides" value="true"/>
</metadata>
<defs/>
<g vectornator:layerName="Livello 5" id="Livello 5">
<g opacity="1">
<path stroke-linecap="round" stroke-width="20.25" stroke="#ebebeb" stroke-linejoin="round" d="M245.616+465.063C569.869+498.542+1022.53+266.759+709.947+112.237C378.221-51.7502+30.8391+285.798+30.8391+285.798" opacity="1" fill="none"/>
<path stroke-width="20.25" d="M191.142+251.307L319.546+664.654" stroke-linejoin="round" fill="none" stroke-linecap="round" stroke="#ebebeb" opacity="1"/>
<path fill="none" opacity="1" d="M359.753+466.818C359.753+466.818+526.339+435.23+770.819+656.234C1015.3+877.238+1118.24+845.301+1110.52+847.856C1102.8+850.411+1834.95+855.521+1834.95+855.521" stroke="#ebebeb" stroke-linejoin="round" stroke-linecap="round" stroke-width="20.25"/>
<path stroke-width="20.25" stroke-linecap="round" stroke="#ebebeb" stroke-linejoin="round" fill="none" d="M702.622+493.994C702.622+493.994+1034.6+465.889+963.829+382.853C893.059+299.816+709.056+299.816+702.622+493.994Z" opacity="1"/>
<path stroke="#ebebeb" stroke-width="20.25" d="M696.188+495.271C696.188+495.271+764.385+734.16+1048.75+546.371" stroke-linejoin="round" fill="none" opacity="1" stroke-linecap="round"/>
<path stroke-linejoin="round" fill="none" opacity="1" stroke-linecap="round" d="M1200.59+366.246C1200.59+366.246+1087.27+267.428+1065.48+472.277C1043.61+677.951+1240.48+607.69+1250.77+529.763C1261.07+451.837+1248.2+387.963+1246.91+344.528C1245.51+297.265+1222.46+637.072+1339.56+625.574C1456.65+614.077+1439.92+528.486+1460.51+511.879" stroke="#ebebeb" stroke-width="20.25"/>
<path fill="none" stroke-linecap="round" stroke="#ebebeb" stroke-width="20.25" opacity="1" stroke-linejoin="round" d="M1661.24+26.4353L1643.23+326.644C1643.23+326.644+1629.07+556.59+1571.17+606.412C1522.09+648.645+1483.18+621.166+1461.8+522.098C1454.08+486.329+1473.38+311.314+1644.51+308.759"/>
<path fill="none" stroke-width="20.25" opacity="1" d="M1694.69+324.089C1694.69+324.089+1643.08+615.241+1796.35+600.025C1886.42+591.082+1872.26+327.921+1872.26+327.921L1863.26+951.332" stroke-linecap="round" stroke-linejoin="round" stroke="#ebebeb"/>
<path fill="none" stroke="#ebebeb" stroke-width="10.2123" stroke-linecap="round" d="M1484.9+855.46L1657.32+603.796L1701.07+635.733L1553.09+858.015L1484.9+855.46Z" opacity="1" stroke-linejoin="round"/>
<path stroke-linecap="round" fill="none" stroke="#ebebeb" stroke-linejoin="round" stroke-width="10.2123" opacity="1" d="M1611.99+845.087C1611.99+845.087+1589.28+807.364+1615.79+804.858C1642.38+802.344+1833.58+802.344+1833.58+802.344C1833.58+802.344+1804.3+816.793+1832.32+846.344C1852.58+867.716+1611.99+845.087+1611.99+845.087Z"/>
<path opacity="1" stroke-linejoin="round" stroke-linecap="round" fill="none" d="M1828.52+801.087C1804.65+799.902+1813.32+744.515+1813.32+744.515C1813.32+744.515+1687.96+745.772+1655.04+747.029C1622.63+748.267+1651.24+798.573+1651.24+798.573C1651.24+798.573+1853.84+802.344+1828.52+801.087Z" stroke="#ebebeb" stroke-width="10.2123"/>
</g>
</g>
</svg>
